<?xml version="1.0" encoding="utf-8"?>
<!-- Svg Vector Icons : http://www.onlinewebfonts.com/icon -->
<!DOCTYPE svg PUBLIC "-//W3C//DTD SVG 1.1//EN" "http://www.w3.org/Graphics/SVG/1.1/DTD/svg11.dtd">
<svg version="1.1" xmlns="http://www.w3.org/2000/svg" xmlns:xlink="http://www.w3.org/1999/xlink" x="0px" y="0px" viewBox="0 0 1000 1000" enable-background="new 0 0 1000 1000" xml:space="preserve">
<metadata> Svg Vector Icons : http://www.onlinewebfonts.com/icon </metadata>
<g><g transform="translate(0.000000,512.000000) scale(0.100000,-0.100000)"><path d="M4852.2,4838.7c-198.7-100.3-380-194.8-401.3-210.3c-34.7-27-38.6-57.9-48.2-362.7l-9.6-333.8l-202.6-42.4C2869,3613.6,1740.4,2596.9,1306.4,1292.8c-320.2-964.6-256.6-1954.3,183.3-2868.7c343.4-709.9,877.8-1290.6,1576.1-1709.2c194.8-117.7,563.3-287.5,736.9-339.5c83-25.1,106.1-56,40.5-56c-63.7,0-135-84.9-135-160.1c0-79.1,57.9-160.1,123.5-171.7c27-5.8,194.8,15.4,372.3,44.4c177.5,30.9,331.8,56,341.5,56c9.6,0-65.6-86.8-167.8-191c-167.8-171.7-187.1-200.6-187.1-262.4c0-52.1,15.4-84.9,55.9-127.3c106.1-106.1,152.4-84.9,451.4,210.3l225.7,225.7v-314.5c0-308.7,0-314.5,48.2-360.8c61.7-63.7,162-63.7,235.4-1.9l54,46.3l5.8,304.8l7.7,302.9l214.1-212.2c287.5-283.6,333.7-304.8,439.9-200.6c40.5,42.4,55.9,75.2,55.9,127.3c0,61.7-19.3,90.7-175.5,250.8c-98.4,100.3-173.6,183.3-167.8,183.3c3.8,0,158.2-30.9,339.5-67.5c183.3-36.6,347.3-61.7,366.5-54c73.3,27,119.6,88.7,119.6,164c0,111.9-57.9,160.1-227.6,189.1c-77.2,13.5-138.9,30.9-138.9,36.7c0,5.8,63.7,32.8,140.8,57.9c1059.1,349.2,1983.2,1238.5,2392.2,2297.6c293.2,756.2,339.5,1562.6,138.9,2357.5C8641.1,1561,8371,2089.6,8016.1,2531.4c-138.9,171.7-468.8,495.8-632.8,619.3c-526.7,403.2-1118.9,665.6-1736.3,769.7l-192.9,32.8l-9.6,470.7c-5.8,258.5-17.3,486.2-27,505.4c-19.3,40.5-110,90.7-164,90.7C5234.2,5020,5052.8,4939,4852.2,4838.7z M5097.2,4136.4c0-515.1-9.6-495.8,272-526.7C7256,3405.3,8617.9,1834.9,8544.7-44.1c-19.3-463-92.6-823.8-254.7-1225c-281.7-706.1-806.4-1317.6-1460.4-1707.3c-162.1-96.5-573-289.4-586.5-273.9c-3.8,3.8,48.2,52.1,113.8,106.1c67.5,54,218,196.8,333.7,316.4c906.7,937.6,1352.4,2158.7,1213.4,3333.6c-56,482.3-281.7,1174.9-439.8,1346.6c-56,59.8-173.6,57.9-235.4-5.8c-61.7-59.8-61.7-138.9,0-260.4c274-542.1,410.9-1232.7,358.8-1803.8C7518.3-941.2,7256-1612.5,6812.2-2199c-156.3-206.4-486.1-544-682.9-702.2c-152.4-123.5-401.2-297.1-422.5-297.1c-5.8,0,23.2,56,65.6,125.4c395.5,646.3,694.5,1610.9,823.8,2652.6c48.2,393.6,48.2,1294.5-1.9,1649.4c-69.5,511.2-175.6,933.7-248.9,983.9c-104.2,73.3-264.3,0-264.3-123.5c0-30.9,27-164,57.9-295.2c289.4-1178.7,185.2-2668.1-268.1-3902.7c-106.1-285.5-343.4-756.3-480.4-945.3l-110-154.3l-9.6,3009.5c-7.7,2386.4-15.4,3019.2-34.7,3052c-54,94.5-189.1,111.9-264.3,34.7l-48.2-46.3V-192.7l-1.9-3034.6l-57.9,67.5c-218,252.7-490,816.1-667.5,1379.4C3984.1-1101.3,3878-383.6,3878,361c0,576.8,50.2,993.5,173.6,1495.1c42.4,169.8,52.1,235.4,36.7,275.9c-23.2,67.5-83,110-158.2,110c-123.5,0-160.1-63.7-241.1-412.8C3496,993.8,3486.3-5.5,3661.9-960.5c148.5-806.4,405.1-1543.3,729.2-2091.2c48.2-81,83-146.6,77.2-146.6c-15.4,0-233.4,148.6-364.6,248.9c-171.7,129.2-515.1,470.7-665.6,657.8c-505.4,636.6-789,1335-850.8,2104.7C2543,364.9,2645.2,908.9,2899.9,1480c52.1,115.7,94.5,237.3,94.5,266.2c0,131.2-194.9,202.6-285.5,104.2c-54-56-177.5-328-262.4-569.1c-436-1254-148.6-2670,773.6-3814c169.8-212.2,505.4-544,696.4-694.5c67.5-52.1,115.8-98.4,106.1-100.3c-11.6-3.9-96.5,19.3-191,54c-540.2,187.1-1055.3,524.7-1441.1,945.3C1271.6-1112.9,1140.5,723.7,2074.2,2105c173.6,258.5,600,690.7,862.3,875.8c233.4,164,663.6,380,926,464.9c198.7,63.7,495.8,133.1,681,156.3c54,7.7,111.9,30.9,144.7,57.9l52.1,44.4l5.8,345.3l7.7,345.3l156.3,81c86.8,42.4,164,79.1,173.6,79.1C5091.4,4557,5097.2,4367.9,5097.2,4136.4z"/></g></g>
</svg>